<svg xmlns="http://www.w3.org/2000/svg" viewBox="0 0 70 70"><g data-name="レイヤー 2"><g data-name="レイヤー 1"><path opacity=".5" fill="#fff" d="M0 0h70v70H0z"/><path d="M51.06 42.07a46.38 46.38 0 00-2.36-9.35c-2.05-5.51-4.84-9.29-8.31-11.26a14.75 14.75 0 00-14 0c-3.46 2-6.26 5.75-8.31 11.26a47.05 47.05 0 00-2.36 9.35 6 6 0 001.75 5.15 7.9 7.9 0 005.31 1.89 10 10 0 001.57-.11 4.16 4.16 0 003-3.79c.43-7.63 1.8-10.94 2.93-12.32 1.41-1.73 4.76-2 6.11 0 1 1.49 2.5 4.69 2.93 12.32a4.18 4.18 0 003 3.79 9.94 9.94 0 001.62.14 7.89 7.89 0 005.3-1.89 5.94 5.94 0 001.82-5.18zM43 47.74a2.82 2.82 0 01-1.87-2.51c-.88-15.29-6.13-15.51-7.76-15.51s-6.89.22-7.76 15.51a2.79 2.79 0 01-1.87 2.51c.48-17.53 5.38-19.81 9.62-19.81 4.24 0 9.15 2.28 9.63 19.81zm5.2-1.69a1.06 1.06 0 010-.19c-2-20.43-12-21-14.75-21s-12.78.57-14.76 21a1.06 1.06 0 010 .19 4.27 4.27 0 01-1.27-3.74 40 40 0 012.26-9 17.15 17.15 0 014.38-6.65 13.23 13.23 0 019.45-3.51 13.22 13.22 0 019.44 3.51 17 17 0 014.38 6.65 40 40 0 012.27 9 4.33 4.33 0 01-1.41 3.74z" fill="#fff"/><path d="M51.06 42.07a46.38 46.38 0 00-2.36-9.35c-2.05-5.51-4.84-9.29-8.31-11.26a14.75 14.75 0 00-14 0c-3.46 2-6.26 5.75-8.31 11.26a47.05 47.05 0 00-2.36 9.35 6 6 0 001.75 5.15 7.9 7.9 0 005.31 1.89 10 10 0 001.57-.11 4.16 4.16 0 003-3.79c.43-7.63 1.8-10.94 2.93-12.32 1.41-1.73 4.76-2 6.11 0 1 1.49 2.5 4.69 2.93 12.32a4.18 4.18 0 003 3.79 9.94 9.94 0 001.62.14h0a7.89 7.89 0 005.3-1.89 5.94 5.94 0 001.82-5.18zM43 47.74a2.82 2.82 0 01-1.87-2.51c-.88-15.29-6.13-15.51-7.76-15.51s-6.89.22-7.76 15.51a2.79 2.79 0 01-1.87 2.51h0c.48-17.53 5.38-19.81 9.62-19.81h0c4.24 0 9.15 2.28 9.63 19.81zm5.2-1.69h0a1.06 1.06 0 010-.19c-2-20.43-12-21-14.75-21s-12.78.57-14.76 21a1.06 1.06 0 010 .19h0a4.27 4.27 0 01-1.27-3.74 40 40 0 012.26-9 17.15 17.15 0 014.38-6.65 13.23 13.23 0 019.45-3.51 13.22 13.22 0 019.44 3.51 17 17 0 014.38 6.65 40 40 0 012.27 9 4.33 4.33 0 01-1.41 3.74z" fill="none" stroke="#634f33" stroke-miterlimit="10" stroke-width=".29"/></g></g></svg>