<svg xmlns="http://www.w3.org/2000/svg" viewBox="0 0 70 70"><defs><style>.cls-2{fill:#fff}.cls-3{fill:none;stroke:#634f33;stroke-miterlimit:10;stroke-width:.29px}</style></defs><g id="レイヤー_2" data-name="レイヤー 2"><g id="レイヤー_1-2" data-name="レイヤー 1"><path opacity=".5" fill="#fff" d="M0 0h70v70H0z"/><path class="cls-2" d="M48.26 30.54l4.87-4.81 1.85 2.5 4.65-.77-5.33 2.65-1.27-2.46-4.77 2.89z"/><path class="cls-3" d="M48.26 30.54l4.87-4.81 1.85 2.5 4.65-.77-5.33 2.65-1.27-2.46-4.77 2.89z"/><path class="cls-2" d="M20.17 30.19l-2.77-6.21-2.5 1.7-3.91-2.34 3.9 4.34 1.96-1.86 3.32 4.37z"/><path class="cls-3" d="M20.17 30.19l-2.77-6.21-2.5 1.7-3.91-2.34 3.9 4.34 1.96-1.86 3.32 4.37z"/><path class="cls-2" d="M37.69 20.65c-1.36.87-4-1.4-5.55-2C26 16.4 21.42 22.28 24.83 29a27.24 27.24 0 011.8 7.52c.35 2.54 1.11 7 2.25 8.38s1.95.12 1.9-1.34c-.11-3.51-.16-6.31.76-9.39a3 3 0 015.71 0c.92 3.08.87 5.88.76 9.39 0 1.46.76 2.67 1.9 1.34s1.9-5.84 2.25-8.38A27.24 27.24 0 0144 29c3.41-6.74-.08-14.26-9.66-9.41"/><path class="cls-3" d="M37.69 20.65c-1.36.87-4-1.4-5.55-2C26 16.4 21.42 22.28 24.83 29a27.24 27.24 0 011.8 7.52c.35 2.54 1.11 7 2.25 8.38s1.95.12 1.9-1.34c-.11-3.51-.16-6.31.76-9.39a3 3 0 015.71 0c.92 3.08.87 5.88.76 9.39 0 1.46.76 2.67 1.9 1.34s1.9-5.84 2.25-8.38A27.24 27.24 0 0144 29c3.41-6.74-.08-14.26-9.66-9.41"/><path class="cls-2" d="M51.29 51.37H16.6V34.72s6-4.58 6.81-3.4c1.28 1.84 1.48 16.75 5.52 16.74 4.6 0 3.61-7.83 5.28-7.71h.08c1.72-.12.88 8.13 5.34 7.71 4-.38 3.6-15.59 5.52-16.74 1.29-.77 4.83 3 6.14 3.4v16.65"/><path class="cls-3" d="M51.29 51.37H16.6V34.72s6-4.58 6.81-3.4c1.28 1.84 1.48 16.75 5.52 16.74 4.6 0 3.61-7.83 5.28-7.71h.08c1.72-.12.88 8.13 5.34 7.71 4-.38 3.6-15.59 5.52-16.74 1.29-.77 4.83 3 6.14 3.4v16.65"/></g></g></svg>