<svg xmlns="http://www.w3.org/2000/svg" viewBox="0 0 70 70"><g data-name="レイヤー 2"><g data-name="レイヤー 1"><path opacity=".5" fill="#fff" d="M0 0h70v70H0z"/><path d="M32.79 21.52C44 15.86 48 24.63 44.05 32.5c-.95 1.88-1.63 5.31-2.1 8.77-.4 3-1.29 8.21-2.62 9.77s-2.27.15-2.21-1.56c.12-4.09.18-8.21-.89-11.8a3.51 3.51 0 00-6.67 0c-1.06 3.59-1 7.71-.88 11.8.05 1.71-.88 3.12-2.21 1.56s-2.22-6.8-2.62-9.77c-.48-3.46-1.15-6.89-2.11-8.77-4-7.87 1.41-14.73 8.53-12.07 1.78.67 4.89 3.32 6.47 2.3zm10.34 5.59H40V24a.37.37 0 00-.37-.37h-2.8a.37.37 0 00-.37.37v3.11h-3.11a.37.37 0 00-.37.37v2.81a.38.38 0 00.37.37h3.11v3.11a.38.38 0 00.37.37h2.82a.38.38 0 00.37-.37v-3.11h3.11a.38.38 0 00.37-.37v-2.81a.37.37 0 00-.37-.37z" fill="#fff"/><path d="M32.79 21.52C44 15.86 48 24.63 44.05 32.5c-.95 1.88-1.63 5.31-2.1 8.77-.4 3-1.29 8.21-2.62 9.77s-2.27.15-2.21-1.56c.12-4.09.18-8.21-.89-11.8a3.51 3.51 0 00-6.67 0c-1.06 3.59-1 7.71-.88 11.8.05 1.71-.88 3.12-2.21 1.56s-2.22-6.8-2.62-9.77c-.48-3.46-1.15-6.89-2.11-8.77-4-7.87 1.41-14.73 8.53-12.07 1.78.67 4.89 3.32 6.47 2.3zm10.34 5.59H40V24a.37.37 0 00-.37-.37h-2.8a.37.37 0 00-.37.37v3.11h-3.11a.37.37 0 00-.37.37v2.81a.38.38 0 00.37.37h3.11v3.11a.38.38 0 00.37.37h2.82a.38.38 0 00.37-.37v-3.11h3.11a.38.38 0 00.37-.37v-2.81a.37.37 0 00-.37-.37z" fill="none" stroke="#634f33" stroke-miterlimit="10" stroke-width=".29"/></g></g></svg>