<svg xmlns="http://www.w3.org/2000/svg" viewBox="0 0 70 70"><defs><style>.cls-2{fill:#fff}.cls-3{fill:none;stroke:#634f33;stroke-miterlimit:10;stroke-width:.29px}</style></defs><g id="レイヤー_2" data-name="レイヤー 2"><g id="レイヤー_1-2" data-name="レイヤー 1"><path opacity=".5" fill="#fff" d="M0 0h70v70H0z"/><path class="cls-2" d="M50.38 25.73a3.45 3.45 0 00-2.69-3.19 53.51 53.51 0 00-29.32 0 3.45 3.45 0 00-2.69 3.19v3.86c0-.72.26-1.95.93-1.95s1.75 1.23 1.75 1.95c0-.95.33-2.54 1.4-2.54a3.28 3.28 0 012.51 2.54c.15-1 1-2.3 2.22-2.3a3.13 3.13 0 012.64 2.3 2.92 2.92 0 015.82 0A3.08 3.08 0 0136 26.92a3.08 3.08 0 012.91 2.67 3.13 3.13 0 012.64-2.3c1.23 0 2.07 1.28 2.22 2.3a3.28 3.28 0 012.51-2.54c1.07 0 1.4 1.59 1.4 2.54 0-.72 1-1.95 1.74-1.95s.94 1.23.94 1.95z"/><path class="cls-3" d="M50.38 25.73a3.45 3.45 0 00-2.69-3.19 53.51 53.51 0 00-29.32 0 3.45 3.45 0 00-2.69 3.19v3.86c0-.72.26-1.95.93-1.95s1.75 1.23 1.75 1.95c0-.95.33-2.54 1.4-2.54a3.28 3.28 0 012.51 2.54c.15-1 1-2.3 2.22-2.3a3.13 3.13 0 012.64 2.3 2.92 2.92 0 015.82 0A3.08 3.08 0 0136 26.92a3.08 3.08 0 012.91 2.67 3.13 3.13 0 012.64-2.3c1.23 0 2.07 1.28 2.22 2.3a3.28 3.28 0 012.51-2.54c1.07 0 1.4 1.59 1.4 2.54 0-.72 1-1.95 1.74-1.95s.94 1.23.94 1.95z"/><path class="cls-2" d="M41.36 34.54c-1.2 0-2.17.07-2.17-.9v-2.85a2.79 2.79 0 012.36-2.44c1.2 0 2 1.47 2 2.44v2.85c-.02.97-.99.9-2.19.9z"/><path class="cls-3" d="M41.36 34.54c-1.2 0-2.17.07-2.17-.9v-2.85a2.79 2.79 0 012.36-2.44c1.2 0 2 1.47 2 2.44v2.85c-.02.97-.99.9-2.19.9z"/><path class="cls-2" d="M45.85 34.08c-1 0-1.89-.29-1.89-1.17v-2.6c0-.88 1.26-2.39 2.22-2.39s1.23 1.51 1.23 2.39v2.6c0 .83-.61 1.17-1.56 1.17z"/><path class="cls-3" d="M45.85 34.08c-1 0-1.89-.29-1.89-1.17v-2.6c0-.88 1.26-2.39 2.22-2.39s1.23 1.51 1.23 2.39v2.6c0 .83-.61 1.17-1.56 1.17z"/><path class="cls-2" d="M49.47 33c-.65 0-1.47 0-1.47-.72v-2c0-.67.88-1.82 1.53-1.82s.83 1.15.83 1.82v2a.78.78 0 01-.89.72z"/><path class="cls-3" d="M49.47 33c-.65 0-1.47 0-1.47-.72v-2c0-.67.88-1.82 1.53-1.82s.83 1.15.83 1.82v2a.78.78 0 01-.89.72z"/><path class="cls-2" d="M24.75 34.33c1.2 0 2.17.08 2.17-.89v-2.85a2.78 2.78 0 00-2.36-2.44c-1.19 0-2 1.46-2 2.44v2.85c.03.97 1 .89 2.19.89z"/><path class="cls-3" d="M24.75 34.33c1.2 0 2.17.08 2.17-.89v-2.85a2.78 2.78 0 00-2.36-2.44c-1.19 0-2 1.46-2 2.44v2.85c.03.97 1 .89 2.19.89z"/><path class="cls-2" d="M20.11 34.21c1 0 1.9-.28 1.9-1.16v-2.6c0-.88-1.27-2.39-2.22-2.39s-1.23 1.51-1.23 2.39v2.6c0 .83.61 1.16 1.55 1.16z"/><path class="cls-3" d="M20.11 34.21c1 0 1.9-.28 1.9-1.16v-2.6c0-.88-1.27-2.39-2.22-2.39s-1.23 1.51-1.23 2.39v2.6c0 .83.61 1.16 1.55 1.16z"/><path class="cls-2" d="M16.79 33.25c.65 0 1.43-.06 1.43-.73v-2c0-.67-.88-1.82-1.53-1.82s-.83 1.15-.83 1.82v2a.78.78 0 00.93.73z"/><path class="cls-3" d="M16.79 33.25c.65 0 1.43-.06 1.43-.73v-2c0-.67-.88-1.82-1.53-1.82s-.83 1.15-.83 1.82v2a.78.78 0 00.93.73z"/><path class="cls-2" d="M30.2 35.09c-1.42 0-2.57 0-2.57-1.19v-3.25A2.76 2.76 0 0130.2 28a2.76 2.76 0 012.57 2.64v3.26c0 1.23-1.15 1.19-2.57 1.19z"/><path class="cls-3" d="M30.2 35.09c-1.42 0-2.57 0-2.57-1.19v-3.25A2.76 2.76 0 0130.2 28a2.76 2.76 0 012.57 2.64v3.26c0 1.23-1.15 1.19-2.57 1.19z"/><path class="cls-2" d="M36 35.09c-1.42 0-2.57 0-2.57-1.19v-3.25A2.76 2.76 0 0136 28a2.76 2.76 0 012.57 2.64v3.26c-.02 1.23-1.17 1.19-2.57 1.19z"/><path class="cls-3" d="M36 35.09c-1.42 0-2.57 0-2.57-1.19v-3.25A2.76 2.76 0 0136 28a2.76 2.76 0 012.57 2.64v3.26c-.02 1.23-1.17 1.19-2.57 1.19z"/><path class="cls-2" d="M47.42 40.74h-.08c0 .91-.27 1.42-1 1.42a1.66 1.66 0 01-1.7-1.42c0 1.11-.27 1.75-1.23 1.75a2 2 0 01-2.14-1.74v.57c0 1.2-.6 1.93-1.71 1.93a2 2 0 01-2.22-1.92v.49a2.23 2.23 0 01-4.45 0v-1.08 1.08a2.23 2.23 0 01-4.45 0v-1.08.58a2 2 0 01-2.23 1.93c-1.11 0-1.71-.73-1.71-1.93v-.58a2 2 0 01-2.14 1.75c-.95 0-1.23-.64-1.23-1.75a1.66 1.66 0 01-1.71 1.42c-.7 0-.95-.51-1-1.42h-.07a1.56 1.56 0 00-1.45 1.69v3.33a1.53 1.53 0 001.25 1.42 62.43 62.43 0 0029.46 0 1.53 1.53 0 001.24-1.42v-3.33a1.56 1.56 0 00-1.43-1.69z"/><path class="cls-3" d="M47.42 40.74h-.08c0 .91-.27 1.42-1 1.42a1.66 1.66 0 01-1.7-1.42c0 1.11-.27 1.75-1.23 1.75a2 2 0 01-2.14-1.74v.57c0 1.2-.6 1.93-1.71 1.93a2 2 0 01-2.22-1.92v.49a2.23 2.23 0 01-4.45 0v-1.08 1.08a2.23 2.23 0 01-4.45 0v-1.08.58a2 2 0 01-2.23 1.93c-1.11 0-1.71-.73-1.71-1.93v-.58a2 2 0 01-2.14 1.75c-.95 0-1.23-.64-1.23-1.75a1.66 1.66 0 01-1.71 1.42c-.7 0-.95-.51-1-1.42h-.07a1.56 1.56 0 00-1.45 1.69v3.33a1.53 1.53 0 001.25 1.42 62.43 62.43 0 0029.46 0 1.53 1.53 0 001.24-1.42v-3.33a1.56 1.56 0 00-1.43-1.69z"/><path class="cls-2" d="M35.24 43a1.77 1.77 0 01-1.86-1.68v-2.8a.58.58 0 01.6-.55h2.52a.58.58 0 01.6.55v2.8A1.77 1.77 0 0135.24 43z"/><path class="cls-3" d="M35.24 43a1.77 1.77 0 01-1.86-1.68v-2.8a.58.58 0 01.6-.55h2.52a.58.58 0 01.6.55v2.8A1.77 1.77 0 0135.24 43z"/><path class="cls-2" d="M39.63 42.42c-1 0-1.86-.55-1.86-1.48v-2.67a.51.51 0 01.54-.48h2.22a.51.51 0 01.54.48v2.67a1.32 1.32 0 01-1.44 1.48z"/><path class="cls-3" d="M39.63 42.42c-1 0-1.86-.55-1.86-1.48v-2.67a.51.51 0 01.54-.48h2.22a.51.51 0 01.54.48v2.67a1.32 1.32 0 01-1.44 1.48z"/><path class="cls-2" d="M43.53 41.77c-.88 0-1.8-.5-1.8-1.35V38a.46.46 0 01.47-.45h1.9a.45.45 0 01.46.45v2.46c0 .81-.23 1.31-1.03 1.31z"/><path class="cls-3" d="M43.53 41.77c-.88 0-1.8-.5-1.8-1.35V38a.46.46 0 01.47-.45h1.9a.45.45 0 01.46.45v2.46c0 .81-.23 1.31-1.03 1.31z"/><path class="cls-2" d="M46.36 41.24A1.34 1.34 0 0144.92 40v-2.34a.39.39 0 01.37-.42h1.52a.39.39 0 01.37.42V40c0 .78-.18 1.24-.82 1.24z"/><path class="cls-3" d="M46.36 41.24A1.34 1.34 0 0144.92 40v-2.34a.39.39 0 01.37-.42h1.52a.39.39 0 01.37.42V40c0 .78-.18 1.24-.82 1.24z"/><path class="cls-2" d="M22.55 41.77c.89 0 1.8-.5 1.8-1.35V38a.46.46 0 00-.46-.45H22a.46.46 0 00-.46.45v2.46c-.02.81.21 1.31 1.01 1.31z"/><path class="cls-3" d="M22.55 41.77c.89 0 1.8-.5 1.8-1.35V38a.46.46 0 00-.46-.45H22a.46.46 0 00-.46.45v2.46c-.02.81.21 1.31 1.01 1.31z"/><path class="cls-2" d="M19.57 41.24A1.34 1.34 0 0021 40v-2.34a.39.39 0 00-.37-.42h-1.51a.39.39 0 00-.37.42V40c0 .78.18 1.24.82 1.24z"/><path class="cls-3" d="M19.57 41.24A1.34 1.34 0 0021 40v-2.34a.39.39 0 00-.37-.42h-1.51a.39.39 0 00-.37.42V40c0 .78.18 1.24.82 1.24z"/><path class="cls-2" d="M26.45 42.42c1 0 1.86-.55 1.86-1.48v-2.67a.51.51 0 00-.53-.48h-2.22a.51.51 0 00-.54.48v2.67a1.32 1.32 0 001.43 1.48z"/><path class="cls-3" d="M26.45 42.42c1 0 1.86-.55 1.86-1.48v-2.67a.51.51 0 00-.53-.48h-2.22a.51.51 0 00-.54.48v2.67a1.32 1.32 0 001.43 1.48z"/><path class="cls-2" d="M30.85 43A1.78 1.78 0 0129 41.27v-2.8a.58.58 0 01.61-.55h2.49a.58.58 0 01.61.55v2.8A1.78 1.78 0 0130.85 43z"/><path class="cls-3" d="M30.85 43A1.78 1.78 0 0129 41.27v-2.8a.58.58 0 01.61-.55h2.49a.58.58 0 01.61.55v2.8A1.78 1.78 0 0130.85 43z"/></g></g></svg>