<svg xmlns="http://www.w3.org/2000/svg" viewBox="0 0 70 70"><defs><style>.cls-2{fill:#fff;stroke:#634f33;stroke-miterlimit:10;stroke-width:.29px}</style></defs><g id="レイヤー_2" data-name="レイヤー 2"><g id="レイヤー_1-2" data-name="レイヤー 1"><path opacity=".5" fill="#fff" d="M0 0h70v70H0z"/><path class="cls-2" d="M41.87 34.12a8.57 8.57 0 01-.38 1.08 10.42 10.42 0 00.17 5.44v.1a12.84 12.84 0 01.35 3.41 19.21 19.21 0 01-2.11 8.36v.08h.28c1.82-.15 3.72-8 5.1-13.71l.32-1.3a27.64 27.64 0 00.92-6.39A10.58 10.58 0 0043.89 24a2.83 2.83 0 00-.93-.72c.91 4.26-1.09 10.84-1.09 10.84zM24.35 44.17a13.05 13.05 0 01.34-3.41v-.1a10.42 10.42 0 00.17-5.44 8.57 8.57 0 01-.38-1.08s-2-6.62-1.08-10.93a3.23 3.23 0 00-1.41 1c-2.44 3.16-3.38 6.28-1.41 13.67l.42 1.29c1.51 5.68 3.58 13.47 5.4 13.58h.21l-.12-.22a19 19 0 01-2.14-8.36zM33.2 39c-4.82.86-4.61 9.6-4.29 13.34a4 4 0 002.14-2 4.18 4.18 0 011.6-2.34.74.74 0 01.49-.18h.13c.76.13 1.49.94 2.16 2.42a4 4 0 002.06 1.92c.32-3.82.51-12.35-4.29-13.16zM35.49 25.32zM35.08 25.35zM34.65 25.38h.22zM33.2 25.41zM35.9 25.29zM34.22 25.39zM33.2 25.41zM31.11 25.34zM30.74 25.31zM31.51 25.36h.22zM33.77 25.4z"/><path class="cls-2" d="M44.48 23.48a3.11 3.11 0 00-.91-.77 3.26 3.26 0 01-.61.54c.9 4.31-1.09 10.87-1.09 10.87a8.57 8.57 0 01-.38 1.08 10.42 10.42 0 00.17 5.44v.1a12.84 12.84 0 01.35 3.41 19.21 19.21 0 01-2.11 8.36v.08h-.2a5.41 5.41 0 01-2.2-.46c.31-3.82.45-12.35-4.3-13.19-4.82.86-4.61 9.6-4.29 13.34a5.44 5.44 0 01-2.2.45h-.14l-.12-.22a19 19 0 01-2.1-8.36 13.05 13.05 0 01.34-3.41v-.1a10.42 10.42 0 00.17-5.44 8.57 8.57 0 01-.38-1.08s-2-6.56-1.09-10.87a3.39 3.39 0 01-.65-.58 3.84 3.84 0 00-1.35 1.06c-2.56 3.32-3.6 6.63-1.55 14.32s3.93 15.31 6.44 15.45a5.4 5.4 0 005.42-2.92c.79-1.83 1.14-2 1.41-1.92v-.09c.34 0 .92.48 1.6 2a5.42 5.42 0 005.49 2.8c2.51-.2 4.21-7.85 6.1-15.59s.81-11.04-1.82-14.3zM31.92 25.38zM32.34 25.4z"/><path class="cls-2" d="M39.35 51.18a.5.5 0 01-.5-.46l-2.78-29.51a.51.51 0 011-.09l2.77 29.51a.5.5 0 01-.45.55z"/><rect x="34.09" y="13.88" width="4.88" height="16.63" rx="1.51" transform="rotate(-5.55 36.563 22.142)" fill="#fff"/><rect x="34.09" y="13.88" width="4.88" height="16.63" rx="1.51" transform="rotate(-5.55 36.563 22.142)" fill="none" stroke="#634f33" stroke-miterlimit="10" stroke-width=".29"/><path class="cls-2" d="M36.26 31.11a2.06 2.06 0 01-2-1.86L32.9 15.71a2 2 0 01.46-1.51 2.08 2.08 0 011.39-.74l1.84-.18a2.06 2.06 0 012.25 1.85l1.32 13.55a2.05 2.05 0 01-1.85 2.24l-1.85.18zm.53-16.75h-.09l-1.85.18a.94.94 0 00-.65.35 1 1 0 00-.22.71l1.32 13.55a1 1 0 001.05.87l1.85-.18a1 1 0 00.87-1.06l-1.31-13.54a1 1 0 00-.97-.88z"/></g></g></svg>