<svg xmlns="http://www.w3.org/2000/svg" viewBox="0 0 70 70"><defs><style>.cls-2{fill:#fff}.cls-3{fill:none;stroke:#634f33;stroke-miterlimit:10;stroke-width:.29px}</style></defs><g id="レイヤー_2" data-name="レイヤー 2"><g id="レイヤー_1-2" data-name="レイヤー 1"><path opacity=".5" fill="#fff" d="M0 0h70v70H0z"/><path class="cls-2" d="M17 20.06h2.79"/><path class="cls-3" d="M17 20.06h2.79"/><path class="cls-2" d="M46.65 17.42A1.42 1.42 0 1145.24 16a1.4 1.4 0 011.41 1.42z"/><path class="cls-3" d="M46.65 17.42A1.42 1.42 0 1145.24 16a1.4 1.4 0 011.41 1.42z"/><path class="cls-2" d="M29.16 15.4a2.31 2.31 0 11-2.31-2.28 2.29 2.29 0 012.31 2.28z"/><path class="cls-3" d="M29.16 15.4a2.31 2.31 0 11-2.31-2.28 2.29 2.29 0 012.31 2.28z"/><path class="cls-2" d="M50.72 29.09l.23.62a2.63 2.63 0 001.58 1.55l.63.23-.63.23A2.67 2.67 0 0051 33.28l-.23.62-.23-.62a2.67 2.67 0 00-1.58-1.56l-.63-.23.63-.23a2.63 2.63 0 001.58-1.55z"/><path class="cls-3" d="M50.72 29.09l.23.62a2.63 2.63 0 001.58 1.55l.63.23-.63.23A2.67 2.67 0 0051 33.28l-.23.62-.23-.62a2.67 2.67 0 00-1.58-1.56l-.63-.23.63-.23a2.63 2.63 0 001.58-1.55z"/><path class="cls-2" d="M33.84 21.6l4.09 1.23c-1.64 1-4.84-1.66-6.68-2.34-5.9-2.17-10.64 1.89-10.17 7.72a4.84 4.84 0 01-1.94-2.38l-.43-1.14-.42 1.14a4.89 4.89 0 01-2.88 2.84l-1.15.42 1.15.41a4.88 4.88 0 012.88 2.85l.42 1.13.43-1.13a4.81 4.81 0 012.2-2.54 13.59 13.59 0 001.1 3c1 1.91 1.69 5.4 2.18 8.93.41 3 1.33 8.36 2.7 9.94s2.34.15 2.29-1.58c-.14-4.18-.19-8.36.91-12a3.64 3.64 0 016.88 0c1.1 3.66 1 7.84.91 12-.05 1.73.92 3.16 2.29 1.58s2.29-6.93 2.7-9.94c.49-3.53 1.19-7 2.17-8.93 4.11-8.05-.1-16.97-11.63-11.21zm10 4.51a3.48 3.48 0 00-2.06 2l-.3.81-.3-.81a3.47 3.47 0 00-2-2l-.82-.3.82-.29a3.46 3.46 0 002-2l.3-.8.3.8a3.47 3.47 0 002.06 2l.81.29z"/><path class="cls-3" d="M33.84 21.6l4.09 1.23c-1.64 1-4.84-1.66-6.68-2.34-5.9-2.17-10.64 1.89-10.17 7.72a4.84 4.84 0 01-1.94-2.38l-.43-1.14-.42 1.14a4.89 4.89 0 01-2.88 2.84l-1.15.42 1.15.41a4.88 4.88 0 012.88 2.85l.42 1.13.43-1.13a4.81 4.81 0 012.2-2.54 13.59 13.59 0 001.1 3c1 1.91 1.69 5.4 2.18 8.93.41 3 1.33 8.36 2.7 9.94s2.34.15 2.29-1.58c-.14-4.18-.19-8.36.91-12a3.64 3.64 0 016.88 0c1.1 3.66 1 7.84.91 12-.05 1.73.92 3.16 2.29 1.58s2.29-6.93 2.7-9.94c.49-3.53 1.19-7 2.17-8.93 4.11-8.05-.1-16.97-11.63-11.21zm10 4.51a3.48 3.48 0 00-2.06 2l-.3.81-.3-.81a3.47 3.47 0 00-2-2l-.82-.3.82-.29a3.46 3.46 0 002-2l.3-.8.3.8a3.47 3.47 0 002.06 2l.81.29z"/><path class="cls-2" d="M18.34 18.74v2.64"/><path class="cls-3" d="M18.34 18.74v2.64"/></g></g></svg>