<svg xmlns="http://www.w3.org/2000/svg" viewBox="0 0 70 70"><defs><style>.cls-2{fill:#fff;stroke:#634f33;stroke-miterlimit:10;stroke-width:.28px}</style></defs><g id="レイヤー_2" data-name="レイヤー 2"><g id="レイヤー_1-2" data-name="レイヤー 1"><path opacity=".5" fill="#fff" d="M0 0h70v70H0z"/><path class="cls-2" d="M23.52 14.6a.85.85 0 11-.85-.85.85.85 0 01.85.85zM48.86 22.75a1.2 1.2 0 11-1.2-1.21 1.2 1.2 0 011.2 1.21zM43.27 44.07a2.6 2.6 0 00-1-2.83c-1-.74-2.18-.66-2.54-1.52-.84-2-2.08-4.82-5.13-4.82-3.35 0-4.26 2.8-5.12 4.78-.37.87-1.6.81-2.64 1.56a2.57 2.57 0 00-1 2.84A39.73 39.73 0 0127 49.66c.34 2.48 1.08 6.88 2.19 8.18s1.9.13 1.86-1.3c-.11-3.43-.15-4.74.74-7.75a2.91 2.91 0 015.58 0c.9 3 .85 4.32.74 7.75 0 1.43.75 2.61 1.86 1.3s1.85-5.7 2.19-8.18a40.69 40.69 0 011.11-5.59zM34.59 27.22v5.27M32.8 30.85l1.81 1.82 1.77-1.82M19.76 18.88l.25.65a2.76 2.76 0 001.64 1.65l.66.24-.66.25A2.77 2.77 0 0020 23.31l-.25.66-.24-.66a2.76 2.76 0 00-1.65-1.64l-.65-.25.65-.24a2.75 2.75 0 001.65-1.65zM44.82 10.39l.12.33a1.38 1.38 0 00.82.82l.33.12-.33.12a1.38 1.38 0 00-.82.82l-.12.32-.12-.32a1.38 1.38 0 00-.82-.82l-.33-.12.33-.12a1.38 1.38 0 00.82-.82zM43.93 15.25c-1.6-2.14-4.82-2.41-9.48-.58l3.33.86c-1.33.64-4-1.15-5.44-1.59-6-2.37-10.43 4-7.19 9.79a9.48 9.48 0 01.91 2.38c.15.57.73.75 1.42.49a20.7 20.7 0 0114.12 0c.69.25 1.27.07 1.43-.5a9.17 9.17 0 01.91-2.37c1.58-2.58 1.6-6.46-.01-8.48zm-1.24 4a2.63 2.63 0 00-1.54 1.54l-.23.62-.22-.62a2.62 2.62 0 00-1.55-1.54l-.61-.23.61-.23a2.59 2.59 0 001.55-1.54l.22-.61.23.61a2.6 2.6 0 001.54 1.54l.62.23z"/></g></g></svg>