<svg xmlns="http://www.w3.org/2000/svg" viewBox="0 0 70 70"><defs><style>.cls-2{fill:#fff}.cls-3{fill:none;stroke:#634f33;stroke-miterlimit:10;stroke-width:.29px}</style></defs><g id="レイヤー_2" data-name="レイヤー 2"><g id="レイヤー_1-2" data-name="レイヤー 1"><path opacity=".5" fill="#fff" d="M0 0h70v70H0z"/><path class="cls-2" d="M39.74 33.06v3.28a1.25 1.25 0 01-1.22 1.29h-11a1.26 1.26 0 01-1.22-1.29v-3.28"/><path class="cls-3" d="M39.74 33.06v3.28a1.25 1.25 0 01-1.22 1.29h-11a1.26 1.26 0 01-1.22-1.29v-3.28"/><path class="cls-2" d="M36.58 18.16c-1.49 1-4.4-1.58-6.07-2.22-6.69-2.57-11.73 4-8 11.64a16.72 16.72 0 011.08 3.35 1.69 1.69 0 001.64 1.34h15.49a1.69 1.69 0 001.64-1.34 16.72 16.72 0 011.08-3.35c3.73-7.59-.09-16-10.57-10.59"/><path class="cls-3" d="M36.58 18.16c-1.49 1-4.4-1.58-6.07-2.22-6.69-2.57-11.73 4-8 11.64a16.72 16.72 0 011.08 3.35 1.69 1.69 0 001.64 1.34h15.49a1.69 1.69 0 001.64-1.34 16.72 16.72 0 011.08-3.35c3.73-7.59-.09-16-10.57-10.59"/><path class="cls-2" d="M28.49 38.55h9.1v2.3h-9.1z"/><path class="cls-3" d="M28.49 38.55h9.1v2.3h-9.1z"/><path class="cls-2" d="M28.49 41.92h9.1v1.93h-9.1z"/><path class="cls-3" d="M28.49 41.92h9.1v1.93h-9.1z"/><path class="cls-2" d="M28.49 44.92h9.1v1.93h-9.1z"/><path class="cls-3" d="M28.49 44.92h9.1v1.93h-9.1z"/><path class="cls-2" d="M28.49 50.91v.22a7.33 7.33 0 001.44 4.36c1 1.3 2.2 2.7 3.11 2.7s2.09-1.33 3-2.61a7.42 7.42 0 001.51-4.45v-.22z"/><path class="cls-3" d="M28.49 50.91v.22a7.33 7.33 0 001.44 4.36c1 1.3 2.2 2.7 3.11 2.7s2.09-1.33 3-2.61a7.42 7.42 0 001.51-4.45v-.22z"/><path class="cls-2" d="M28.49 47.92h9.1v1.93h-9.1z"/><path class="cls-3" d="M28.49 47.92h9.1v1.93h-9.1z"/></g></g></svg>