<svg xmlns="http://www.w3.org/2000/svg" viewBox="0 0 70 70"><defs><style>.cls-2{fill:#fff;stroke:#634f33;stroke-miterlimit:10;stroke-width:.29px}</style></defs><g id="レイヤー_2" data-name="レイヤー 2"><g id="レイヤー_1-2" data-name="レイヤー 1"><path opacity=".5" fill="#fff" d="M0 0h70v70H0z"/><path class="cls-2" d="M39.2 21.47l-1.83 3.05L40 26.1l-9 11.08 3.16-8.44-5.8-3.17L30 21.71a10.84 10.84 0 00-4.81-.36c-3.85.58-6.38 4.26-5.8 10.43.59 6.39 4.3 11.1 4.74 17 .44 5.7 3.36 4.88 4.1 2.86s2-7.57 3.65-7.57 2.91 5.55 3.66 7.57 3.66 2.84 4.1-2.86c.44-5.89 4.15-10.6 4.74-17 .62-5.85-1.67-9.46-5.18-10.31zM42.58 21.32l2.96-6.37 2.68 1.74 4.19-2.4-4.18 4.45-2.1-1.91-3.55 4.49zM44.68 23.52l5.92-3.77 1.32 2.9 4.82.24-5.92 1.5-.73-2.74-5.41 1.87z"/></g></g></svg>