<svg xmlns="http://www.w3.org/2000/svg" viewBox="0 0 70 70"><defs><style>.cls-2{fill:#fff}.cls-3{fill:none;stroke:#634f33;stroke-miterlimit:10;stroke-width:.29px}</style></defs><g id="レイヤー_2" data-name="レイヤー 2"><g id="レイヤー_1-2" data-name="レイヤー 1"><path opacity=".5" fill="#fff" d="M0 0h70v70H0z"/><path class="cls-2" d="M36.6 17.86A18 18 0 0149 26.67v-.25c-9.19-13.86-24.21-9.17-29.35-2.81a16.23 16.23 0 00-1.9 2.95 18.07 18.07 0 0118.85-8.7z"/><path class="cls-3" d="M36.6 17.86A18 18 0 0149 26.67v-.25c-9.19-13.86-24.21-9.17-29.35-2.81a16.23 16.23 0 00-1.9 2.95 18.07 18.07 0 0118.85-8.7z"/><path class="cls-2" d="M37.79 28.94c.14-.15.2-.23.2-.23z"/><path class="cls-3" d="M37.79 28.94c.14-.15.2-.23.2-.23z"/><path class="cls-2" d="M49 26.67c-.25 1.31-2.16 7.41-16 7.62l4.8-5.35c-1.23 1.3-7.95 7.51-22.23 4.89a23.66 23.66 0 012.26-7.27 18.49 18.49 0 00-2.23 6A18.06 18.06 0 1049 26.67zm-23.66 15a1.88 1.88 0 01-1.62-2.06 1.89 1.89 0 011.62-2.07A1.88 1.88 0 0127 39.58a1.87 1.87 0 01-1.63 2.06zm14.9 3.79C38.43 48.35 35.74 49.5 32 49a7.37 7.37 0 01-5.22-3.57.45.45 0 11.8-.43 6.58 6.58 0 004.55 3.1c3.35.49 5.68-.49 7.33-3.11a.46.46 0 01.63-.15.47.47 0 01.18.59zm1.12-3.79a1.88 1.88 0 01-1.62-2.06 1.89 1.89 0 011.62-2.07 2.12 2.12 0 010 4.13z"/><path class="cls-3" d="M49 26.67c-.25 1.31-2.16 7.41-16 7.62l4.8-5.35c-1.23 1.3-7.95 7.51-22.23 4.89a23.66 23.66 0 012.26-7.27 18.49 18.49 0 00-2.23 6A18.06 18.06 0 1049 26.67zm-23.66 15a1.88 1.88 0 01-1.62-2.06 1.89 1.89 0 011.62-2.07A1.88 1.88 0 0127 39.58a1.87 1.87 0 01-1.63 2.06zm14.9 3.79C38.43 48.35 35.74 49.5 32 49a7.37 7.37 0 01-5.22-3.57.45.45 0 11.8-.43 6.58 6.58 0 004.55 3.1c3.35.49 5.68-.49 7.33-3.11a.46.46 0 01.63-.15.47.47 0 01.18.59zm1.12-3.79a1.88 1.88 0 01-1.62-2.06 1.89 1.89 0 011.62-2.07 2.12 2.12 0 010 4.13z"/></g></g></svg>