<svg xmlns="http://www.w3.org/2000/svg" viewBox="0 0 70 70"><g data-name="レイヤー 2"><g data-name="レイヤー 1"><path opacity=".5" fill="#fff" d="M0 0h70v70H0z"/><path d="M48.79 31.57a13.94 13.94 0 00-27.87.54c-1 2-3.53 7.16-3.53 7.16a1.43 1.43 0 00.92 2l2.28.57s1.16 5.3 1.42 6.53c.4 1.86 1 2.27 2.74 2.27a17 17 0 003.8-.57v3.34h14.94v-5.27a9.88 9.88 0 012-6.11 14.48 14.48 0 003.3-10.46zM27 42.31l2-9 3.89 1.49 4.68-4.27-4.1 6.91-3.2-1.88zm9.87 2.42l-.89-3.63-7.1 2.32 7.82-4.82 1.64 3.87 6.3.43z" fill="#fff"/><path d="M48.79 31.57a13.94 13.94 0 00-27.87.54c-1 2-3.53 7.16-3.53 7.16a1.43 1.43 0 00.92 2l2.28.57s1.16 5.3 1.42 6.53c.4 1.86 1 2.27 2.74 2.27a17 17 0 003.8-.57v3.34h14.94v-5.27a9.88 9.88 0 012-6.11 14.48 14.48 0 003.3-10.46zM27 42.31l2-9 3.89 1.49 4.68-4.27-4.1 6.91-3.2-1.88zm9.87 2.42l-.89-3.63-7.1 2.32 7.82-4.82 1.64 3.87 6.3.43z" fill="none" stroke="#634f33" stroke-miterlimit="10" stroke-width=".29"/></g></g></svg>