<svg xmlns="http://www.w3.org/2000/svg" viewBox="0 0 70 70"><defs><style>.cls-2{fill:#fff;stroke:#634f33;stroke-miterlimit:10;stroke-width:.29px}</style></defs><g id="レイヤー_2" data-name="レイヤー 2"><g id="レイヤー_1-2" data-name="レイヤー 1"><path opacity=".5" fill="#fff" d="M0 0h70v70H0z"/><path class="cls-2" d="M41.69 34c1.08 0 2 1.12 2.07 2.54h3v-2.13c0-2.73-2.42-5.87-5.41-5.87S36 31.68 36 34.41v2.17h3.66c.05-1.42.94-2.58 2.03-2.58zM41.69 40.38c-1.12 0-2-1.19-2.07-2.68H36v3.9c0 2.72 2.42 2.65 5.4 2.65s5.41.07 5.41-2.65v-3.9h-3c-.09 1.49-1 2.68-2.12 2.68zM30.4 40.38c-1.12 0-2-1.19-2.07-2.68h-3.45v3.9c0 2.72 2.42 2.65 5.4 2.65s5.41.07 5.41-2.65v-3.9h-3.22c-.04 1.49-.95 2.68-2.07 2.68zM30.4 34c1.09 0 2 1.12 2.07 2.54h3.22v-2.13c0-2.73-2.42-5.87-5.41-5.87s-5.4 3.14-5.4 5.87v2.17h3.45c.1-1.42.99-2.58 2.07-2.58zM19.76 39.54A2.06 2.06 0 0118 37.7h-2.51V41c0 2.15 2 2 4.56 2s4.56.17 4.56-2v-3.3h-3.06a2 2 0 01-1.79 1.84zM17.88 36.34c0-1.38.84-2.5 1.87-2.5 1 0 1.86 1.12 1.86 2.5v.24h3v-1.87c0-2.16-2.44-5.41-5-5.41s-4.16 3.25-4.16 5.41v1.87h2.39zM50.47 36.34c0-1.38.83-2.5 1.86-2.5 1 0 1.87 1.12 1.87 2.5v.24h2.1v-1.87c0-2.16-1.64-5.41-4.16-5.41s-5 3.25-5 5.41v1.87h3.29zM52.34 39.54a2 2 0 01-1.79-1.84h-3.37V41c0 2.15 2 2 4.56 2s4.56.17 4.56-2v-3.3h-2.16a2.06 2.06 0 01-1.8 1.84zM56.3 36.58h4.18v1.12H56.3zM28.32 36.83v.87h4.14v-.87-.25h-4.13c0 .09-.01.17-.01.25zM24.61 36.58h.27v1.12h-.27z"/><path class="cls-2" d="M11.05 36.58h4.43v1.12h-4.43zM35.69 36.58h.27v1.12h-.27zM39.61 36.83v.77a.34.34 0 000 .1h4.14v-.87-.25h-4.13c0 .09-.01.17-.01.25zM50.47 37a2.84 2.84 0 00.07.66h3.6a3.51 3.51 0 00.07-.66v-.46h-3.74zM46.77 36.58h.41v1.12h-.41zM17.88 37a3.51 3.51 0 00.07.66h3.6a2.84 2.84 0 00.07-.66v-.46h-3.74z"/></g></g></svg>