<svg xmlns="http://www.w3.org/2000/svg" viewBox="0 0 39.31 39.31"><defs><style>.cls-1{fill:#fff;}</style></defs><g id="Layer_2" data-name="Layer 2"><g id="レイヤー_1" data-name="レイヤー 1"><path class="cls-1" d="M28.12,39.31H11.19A11.2,11.2,0,0,1,0,28.12V11.19A11.2,11.2,0,0,1,11.19,0H28.12A11.2,11.2,0,0,1,39.31,11.19V28.12A11.2,11.2,0,0,1,28.12,39.31ZM11.19,3.37a7.83,7.83,0,0,0-7.82,7.82V28.12a7.82,7.82,0,0,0,7.82,7.82H28.12a7.82,7.82,0,0,0,7.82-7.82V11.19a7.82,7.82,0,0,0-7.82-7.82Z"/><path class="cls-1" d="M19.66,29.72A10.07,10.07,0,1,1,29.72,19.66,10.08,10.08,0,0,1,19.66,29.72Zm0-16.76a6.7,6.7,0,1,0,6.69,6.7A6.7,6.7,0,0,0,19.66,13Z"/><path class="cls-1" d="M32.57,9A2.42,2.42,0,1,1,30.15,6.6,2.42,2.42,0,0,1,32.57,9Z"/></g></g></svg>