<svg xmlns="http://www.w3.org/2000/svg" viewBox="0 0 50 50"><defs><style>.cls-1{fill:#00a79b;opacity:0.5;}.cls-2{fill:none;stroke:#fff;stroke-miterlimit:10;}.cls-3{fill:#fff;}</style></defs><g id="Layer_2" data-name="Layer 2"><g id="レイヤー_1" data-name="レイヤー 1"><rect class="cls-1" width="50" height="50" transform="translate(50 50) rotate(-180)"/><line class="cls-2" x1="39.5" y1="25" x2="8.2" y2="25"/><path class="cls-3" d="M15,20.2a.49.49,0,0,1-.16.69L8.43,25l6.45,4.11a.49.49,0,0,1,.16.69.5.5,0,0,1-.69.15L7.23,25.42a.5.5,0,0,1,0-.84l7.12-4.53a.42.42,0,0,1,.26-.08A.51.51,0,0,1,15,20.2Z"/></g></g></svg>