<svg xmlns="http://www.w3.org/2000/svg" viewBox="0 0 50 50"><defs><style>.cls-1{fill:#b8ac7d;}.cls-2{fill:none;stroke:#fff;stroke-miterlimit:10;}.cls-3{fill:#fff;}</style></defs><g id="Layer_2" data-name="Layer 2"><g id="レイヤー_1" data-name="レイヤー 1"><rect class="cls-1" width="50" height="50"/><line class="cls-2" x1="8.5" y1="15.5" x2="40.3" y2="15.5"/><path class="cls-3" d="M33.46,20.3a.49.49,0,0,1,.16-.69l6.45-4.11-6.45-4.11a.49.49,0,0,1-.16-.69.5.5,0,0,1,.69-.15l7.12,4.53a.5.5,0,0,1,0,.84l-7.12,4.53a.42.42,0,0,1-.26.08A.51.51,0,0,1,33.46,20.3Z"/><path class="cls-3" d="M9.93,34.22l.1,0c.27-.27.5-.48.67-.62a4,4,0,0,1,.51-.33,2.28,2.28,0,0,1,.46-.18,1.68,1.68,0,0,1,.45-.06,1.85,1.85,0,0,1,1.11.32,1.62,1.62,0,0,1,.59,1,10.81,10.81,0,0,1,.83-.76,2.74,2.74,0,0,1,.65-.38,1.92,1.92,0,0,1,.72-.14,2.1,2.1,0,0,1,.79.14,1.34,1.34,0,0,1,.56.41,1.71,1.71,0,0,1,.33.69,4.73,4.73,0,0,1,.11,1.12V38a5.64,5.64,0,0,0,0,.72,1.16,1.16,0,0,0,.1.3.52.52,0,0,0,.2.19,1.59,1.59,0,0,0,.44.16v.34H15.89v-.34a2.1,2.1,0,0,0,.38-.14.65.65,0,0,0,.2-.17.94.94,0,0,0,.12-.34,4,4,0,0,0,0-.69V36.23c0-.39,0-.71,0-1a3.5,3.5,0,0,0-.09-.6,1.54,1.54,0,0,0-.16-.36,1.1,1.1,0,0,0-.21-.22.89.89,0,0,0-.27-.15,1.25,1.25,0,0,0-.42-.06,1.26,1.26,0,0,0-.51.11,2.16,2.16,0,0,0-.51.37,1.68,1.68,0,0,0-.4.53,1.44,1.44,0,0,0-.12.61V38a5.64,5.64,0,0,0,0,.72.87.87,0,0,0,.1.3.5.5,0,0,0,.19.19,1.9,1.9,0,0,0,.44.16v.34H12v-.34a2.45,2.45,0,0,0,.38-.14.52.52,0,0,0,.19-.17.78.78,0,0,0,.13-.34,4,4,0,0,0,0-.69V36.23c0-.41,0-.74,0-1a3.38,3.38,0,0,0-.11-.61,1.35,1.35,0,0,0-.18-.38,1.53,1.53,0,0,0-.23-.22,1,1,0,0,0-.28-.11,1.78,1.78,0,0,0-.35,0A1.22,1.22,0,0,0,11,34a2.21,2.21,0,0,0-.5.37,1.79,1.79,0,0,0-.39.5,1.32,1.32,0,0,0-.13.56V38c0,.26,0,.46,0,.59a1.68,1.68,0,0,0,.07.33.61.61,0,0,0,.11.18.64.64,0,0,0,.2.14,1.8,1.8,0,0,0,.38.13v.34H8.1v-.34a2.26,2.26,0,0,0,.37-.14.61.61,0,0,0,.19-.17.78.78,0,0,0,.13-.34,5.35,5.35,0,0,0,0-.7V35c0-.29,0-.53,0-.7a1.15,1.15,0,0,0-.09-.43.53.53,0,0,0-.25-.24A1.79,1.79,0,0,0,8,33.53v-.37l1.6-.06H10Z"/><path class="cls-3" d="M24.11,39.81A2.75,2.75,0,0,1,21.94,39a3.61,3.61,0,0,1-.75-2.48,4.25,4.25,0,0,1,.39-1.91,2.74,2.74,0,0,1,1.08-1.15,3.11,3.11,0,0,1,1.56-.38,2.77,2.77,0,0,1,2.21.85,3.53,3.53,0,0,1,.76,2.44,4.41,4.41,0,0,1-.38,1.92,2.57,2.57,0,0,1-1.07,1.16A3.25,3.25,0,0,1,24.11,39.81Zm-1.63-3.46a4.24,4.24,0,0,0,.45,2.16,1.41,1.41,0,0,0,1.28.76,1.38,1.38,0,0,0,.78-.22,1.72,1.72,0,0,0,.53-.6,3.07,3.07,0,0,0,.29-.87,5.85,5.85,0,0,0,.08-1,5.28,5.28,0,0,0-.22-1.67,2.13,2.13,0,0,0-.6-1,1.35,1.35,0,0,0-.88-.31,1.43,1.43,0,0,0-1.27.71A4,4,0,0,0,22.48,36.35Z"/><path class="cls-3" d="M31.81,34.3l.1,0a4.4,4.4,0,0,1,.7-.72,2.42,2.42,0,0,1,.69-.41,2.25,2.25,0,0,1,.84-.14,5.2,5.2,0,0,1,.72,0v1.57h-.77a1.73,1.73,0,0,0-.35-.54.72.72,0,0,0-.5-.16.89.89,0,0,0-.49.14,1.66,1.66,0,0,0-.47.42A1.58,1.58,0,0,0,32,35a1.62,1.62,0,0,0-.09.57V38a3.27,3.27,0,0,0,.08.86.59.59,0,0,0,.25.34,1.31,1.31,0,0,0,.52.17v.34H30v-.34a2.1,2.1,0,0,0,.38-.14.61.61,0,0,0,.19-.17.67.67,0,0,0,.12-.34,3.79,3.79,0,0,0,.05-.7V35c0-.29,0-.53,0-.7a1.15,1.15,0,0,0-.09-.43.53.53,0,0,0-.25-.24,1.79,1.79,0,0,0-.48-.13v-.36l1.6-.07h.42Z"/><path class="cls-3" d="M42.62,38.54a5.92,5.92,0,0,1-.8.71,3.09,3.09,0,0,1-.81.41,2.93,2.93,0,0,1-1,.15A2.62,2.62,0,0,1,37.92,39a3.79,3.79,0,0,1-.71-2.49,4.25,4.25,0,0,1,.36-1.8,2.78,2.78,0,0,1,1-1.2,2.92,2.92,0,0,1,1.56-.42,2.83,2.83,0,0,1,1.18.22,1.91,1.91,0,0,1,.77.59,2.86,2.86,0,0,1,.46,1,7.16,7.16,0,0,1,.18,1.51H38.45v.12a4.44,4.44,0,0,0,.18,1.36,1.73,1.73,0,0,0,.6.86A1.7,1.7,0,0,0,40.3,39a2.34,2.34,0,0,0,1-.21,2.82,2.82,0,0,0,.89-.68Zm-1.15-2.78a5.87,5.87,0,0,0-.18-1.21,1.51,1.51,0,0,0-.43-.71,1.12,1.12,0,0,0-.76-.25,1.31,1.31,0,0,0-1.12.56,3,3,0,0,0-.5,1.61Z"/></g></g></svg>