<svg xmlns="http://www.w3.org/2000/svg" viewBox="0 0 39.31 31.94"><defs><style>.cls-1{fill:#fff;}</style></defs><g id="Layer_2" data-name="Layer 2"><g id="レイヤー_1" data-name="レイヤー 1"><path id="Logo" class="cls-1" d="M35.29,8c0,.35,0,.7,0,1,0,10.66-8.11,23-23,23h0A22.86,22.86,0,0,1,0,28.32a15.47,15.47,0,0,0,1.92.12,16.26,16.26,0,0,0,10-3.46,8.1,8.1,0,0,1-7.54-5.6A8.13,8.13,0,0,0,8,19.24a8.07,8.07,0,0,1-6.47-7.91v-.1a8.1,8.1,0,0,0,3.66,1A8.08,8.08,0,0,1,2.74,1.47,22.89,22.89,0,0,0,19.36,9.9,8.07,8.07,0,0,1,33.1,2.54a16.08,16.08,0,0,0,5.13-2,8.17,8.17,0,0,1-3.55,4.47,16.16,16.16,0,0,0,4.63-1.27A16.26,16.26,0,0,1,35.29,8Z"/></g></g></svg>